<?xml version="1.0" encoding="UTF-8"?>
<svg version="1.1" xmlns="http://www.w3.org/2000/svg" width="90" height="90">
<path d="M0 0 C1.1645723 0.00233139 2.32914459 0.00466278 3.52900696 0.00706482 C5.98596542 0.01679541 8.44290166 0.03856632 10.8996582 0.0715332 C14.67237308 0.12104902 18.44378603 0.13302034 22.21679688 0.13867188 C24.60287854 0.15275339 26.98894884 0.16895618 29.375 0.1875 C31.07495369 0.19554405 31.07495369 0.19554405 32.80924988 0.20375061 C33.85406021 0.21973801 34.89887054 0.2357254 35.9753418 0.25219727 C36.89735886 0.26283707 37.81937592 0.27347687 38.76933289 0.28443909 C40.98828125 0.55859375 40.98828125 0.55859375 42.98828125 2.55859375 C43.24224854 4.91162109 43.24224854 4.91162109 43.24707031 7.89453125 C43.25337463 9.00908691 43.25967896 10.12364258 43.26617432 11.27197266 C43.26212585 12.48030762 43.25807739 13.68864258 43.25390625 14.93359375 C43.25677643 16.78670166 43.25677643 16.78670166 43.25970459 18.67724609 C43.26141735 21.96450782 43.25334824 25.25158162 43.2421875 28.53881836 C43.23828522 30.55653905 43.24217296 32.57408576 43.24902344 34.59179688 C43.26134129 38.45581203 43.25989103 42.31956803 43.25390625 46.18359375 C43.25795471 47.39192871 43.26200317 48.60026367 43.26617432 49.84521484 C43.25987 50.95977051 43.25356567 52.07432617 43.24707031 53.22265625 C43.24547913 54.2070166 43.24388794 55.19137695 43.24224854 56.20556641 C42.98828125 58.55859375 42.98828125 58.55859375 40.98828125 60.55859375 C38.81161499 60.83706665 38.81161499 60.83706665 36.07958984 60.87744141 C35.05868256 60.8973111 34.03777527 60.91718079 32.9859314 60.93765259 C31.88069122 60.9492038 30.77545105 60.960755 29.63671875 60.97265625 C28.50755035 60.9920224 27.37838196 61.01138855 26.21499634 61.03134155 C22.59783553 61.09126444 18.98064312 61.13757377 15.36328125 61.18359375 C12.91535047 61.2217618 10.46743329 61.26081283 8.01953125 61.30078125 C2.00923501 61.39697634 -4.00114268 61.4819864 -10.01171875 61.55859375 C-10.01171875 62.87859375 -10.01171875 64.19859375 -10.01171875 65.55859375 C7.47828125 65.88859375 24.96828125 66.21859375 42.98828125 66.55859375 C43.98828125 70.55859375 43.98828125 70.55859375 42.98828125 72.55859375 C35.22879171 72.65992737 27.46947249 72.73003158 19.70947266 72.77832031 C17.06910831 72.7984485 14.4287886 72.82575362 11.78857422 72.86035156 C7.99565624 72.90881425 4.20332709 72.93155095 0.41015625 72.94921875 C-1.36346283 72.98018646 -1.36346283 72.98018646 -3.1729126 73.01177979 C-4.27375183 73.01208191 -5.37459106 73.01238403 -6.50878906 73.01269531 C-7.47697571 73.02157776 -8.44516235 73.03046021 -9.44268799 73.03961182 C-12.75136198 72.42010504 -13.90839368 71.12460999 -16.01171875 68.55859375 C-17.34774629 65.88653866 -17.1684287 63.80343722 -17.20458984 60.8112793 C-17.22065277 59.60630295 -17.2367157 58.4013266 -17.25326538 57.15983582 C-17.29761355 51.64667914 -17.33921963 46.13365393 -17.36181641 40.62036133 C-17.37515304 37.70923418 -17.40299909 34.79880848 -17.44384766 31.88793945 C-17.49319687 28.37125992 -17.51793988 24.85521634 -17.52504349 21.33820534 C-17.53500721 19.35005207 -17.56924586 17.36206833 -17.60385132 15.37419128 C-17.58331916 6.62520528 -17.58331916 6.62520528 -15.22973633 2.23339844 C-10.23240687 -0.36744217 -5.55187558 -0.09620133 0 0 Z M1.98828125 19.55859375 C1.98828125 20.87859375 1.98828125 22.19859375 1.98828125 23.55859375 C4.41719307 24.77304966 5.99547568 24.68783573 8.70703125 24.69140625 C10.10501953 24.69333984 10.10501953 24.69333984 11.53125 24.6953125 C12.50707031 24.69144531 13.48289062 24.68757813 14.48828125 24.68359375 C15.95201172 24.68939453 15.95201172 24.68939453 17.4453125 24.6953125 C18.37730469 24.69402344 19.30929688 24.69273438 20.26953125 24.69140625 C21.12611328 24.69027832 21.98269531 24.68915039 22.86523438 24.68798828 C25.04319659 24.69445821 25.04319659 24.69445821 26.98828125 23.55859375 C26.98828125 22.23859375 26.98828125 20.91859375 26.98828125 19.55859375 C24.55936943 18.34413784 22.98108682 18.42935177 20.26953125 18.42578125 C18.87154297 18.42384766 18.87154297 18.42384766 17.4453125 18.421875 C15.98158203 18.42767578 15.98158203 18.42767578 14.48828125 18.43359375 C13.51246094 18.42972656 12.53664063 18.42585938 11.53125 18.421875 C10.59925781 18.42316406 9.66726562 18.42445312 8.70703125 18.42578125 C7.85044922 18.42690918 6.99386719 18.42803711 6.11132812 18.42919922 C3.93336591 18.42272929 3.93336591 18.42272929 1.98828125 19.55859375 Z " fill="#1D8FFF" transform="translate(32.01171875,8.44140625)"/>
</svg>
