<?xml version="1.0" encoding="UTF-8"?>
<svg version="1.1" xmlns="http://www.w3.org/2000/svg" width="64" height="64">
<path d="M0 0 C2.97283825 2.0836176 5.81805917 4.08129993 8 7 C8 8.98 8 10.96 8 13 C-5.2 13 -18.4 13 -32 13 C-32 7 -32 7 -30.75 4.98828125 C-22.06674847 -3.32670738 -10.97163136 -6.29852912 0 0 Z " fill="#1D90FF" transform="translate(44,48)"/>
<path d="M0 0 C3.96220871 3.3961789 4.49510792 4.90778181 5 10.125 C4.88735068 14.43785966 3.45117939 16.95279071 0.625 20.25 C-2.36312362 22.59781141 -5.59411188 22.66825081 -9.34375 22.5703125 C-13.41825238 21.92779482 -16.25254791 19.67857538 -18.75 16.5 C-20.19899408 11.28362133 -20.07553657 7.60103481 -17.625 2.875 C-12.72832137 -2.83779173 -6.58393652 -3.41389301 0 0 Z " fill="#1C93FF" transform="translate(39.375,19.75)"/>
</svg>
